<mxfile host="Electron" modified="2024-03-01T21:38:09.296Z" agent="Mozilla/5.0 (Windows NT 10.0; Win64; x64) AppleWebKit/537.36 (KHTML, like Gecko) draw.io/23.0.2 Chrome/120.0.6099.109 Electron/28.1.0 Safari/537.36" etag="V0h-4CEBChSLpjXW6COK" version="23.0.2" type="device">
  <diagram name="Page-1" id="e7e014a7-5840-1c2e-5031-d8a46d1fe8dd">
    <mxGraphModel dx="1195" dy="712" grid="1" gridSize="10" guides="1" tooltips="1" connect="1" arrows="1" fold="1" page="1" pageScale="1" pageWidth="1169" pageHeight="827" background="none" math="0" shadow="0">
      <root>
        <mxCell id="0" />
        <mxCell id="1" parent="0" />
        <mxCell id="uK4ICi8PNPJ2xtGUJySF-41" value="Banco" style="swimlane;fontStyle=1;align=center;verticalAlign=top;childLayout=stackLayout;horizontal=1;startSize=26;horizontalStack=0;resizeParent=1;resizeParentMax=0;resizeLast=0;collapsible=1;marginBottom=0;whiteSpace=wrap;html=1;strokeColor=#67AB9F;" vertex="1" parent="1">
          <mxGeometry x="505" y="30" width="160" height="70" as="geometry">
            <mxRectangle x="505" y="40" width="80" height="30" as="alternateBounds" />
          </mxGeometry>
        </mxCell>
        <mxCell id="uK4ICi8PNPJ2xtGUJySF-42" value="+ listaClientes&amp;lt;Cliente&amp;gt;: ArrayList&amp;lt;&amp;gt;" style="text;strokeColor=#67AB9F;fillColor=none;align=left;verticalAlign=top;spacingLeft=4;spacingRight=4;overflow=hidden;rotatable=0;points=[[0,0.5],[1,0.5]];portConstraint=eastwest;whiteSpace=wrap;html=1;" vertex="1" parent="uK4ICi8PNPJ2xtGUJySF-41">
          <mxGeometry y="26" width="160" height="44" as="geometry" />
        </mxCell>
        <mxCell id="uK4ICi8PNPJ2xtGUJySF-54" value="&lt;p style=&quot;margin:0px;margin-top:4px;text-align:center;&quot;&gt;&lt;i&gt;&amp;lt;&amp;lt;Interface&amp;gt;&amp;gt;&lt;/i&gt;&lt;br&gt;&lt;b&gt;Conta&lt;/b&gt;&lt;/p&gt;&lt;hr size=&quot;1&quot;&gt;&lt;p style=&quot;margin:0px;margin-left:4px;&quot;&gt;&lt;span style=&quot;background-color: initial;&quot;&gt;+ deposito(param: int): void&lt;/span&gt;&lt;br&gt;&lt;/p&gt;&lt;p style=&quot;margin:0px;margin-left:4px;&quot;&gt;&lt;br&gt;+ saque(param: int): void&lt;/p&gt;&lt;p style=&quot;margin:0px;margin-left:4px;&quot;&gt;&lt;br&gt;&lt;/p&gt;&lt;p style=&quot;margin:0px;margin-left:4px;&quot;&gt;+ transferencia(param1:conta;&lt;/p&gt;&lt;p style=&quot;margin:0px;margin-left:4px;&quot;&gt;param2:int): void&lt;/p&gt;" style="verticalAlign=top;align=left;overflow=fill;fontSize=12;fontFamily=Helvetica;html=1;whiteSpace=wrap;strokeColor=#67AB9F;" vertex="1" parent="1">
          <mxGeometry x="500" y="430" width="170" height="150" as="geometry" />
        </mxCell>
        <mxCell id="uK4ICi8PNPJ2xtGUJySF-115" style="edgeStyle=orthogonalEdgeStyle;rounded=0;orthogonalLoop=1;jettySize=auto;html=1;exitX=0.5;exitY=1;exitDx=0;exitDy=0;entryX=0.5;entryY=0;entryDx=0;entryDy=0;dashed=1;strokeColor=#67AB9F;" edge="1" parent="1" source="uK4ICi8PNPJ2xtGUJySF-60" target="uK4ICi8PNPJ2xtGUJySF-87">
          <mxGeometry relative="1" as="geometry" />
        </mxCell>
        <mxCell id="uK4ICi8PNPJ2xtGUJySF-116" style="edgeStyle=orthogonalEdgeStyle;rounded=0;orthogonalLoop=1;jettySize=auto;html=1;exitX=0.5;exitY=1;exitDx=0;exitDy=0;entryX=0.5;entryY=0;entryDx=0;entryDy=0;dashed=1;strokeColor=#67AB9F;" edge="1" parent="1" source="uK4ICi8PNPJ2xtGUJySF-60" target="uK4ICi8PNPJ2xtGUJySF-83">
          <mxGeometry relative="1" as="geometry" />
        </mxCell>
        <mxCell id="uK4ICi8PNPJ2xtGUJySF-60" value="Cliente" style="swimlane;fontStyle=0;childLayout=stackLayout;horizontal=1;startSize=26;fillColor=none;horizontalStack=0;resizeParent=1;resizeParentMax=0;resizeLast=0;collapsible=1;marginBottom=0;whiteSpace=wrap;html=1;strokeColor=#67AB9F;" vertex="1" parent="1">
          <mxGeometry x="487.5" y="180" width="195" height="104" as="geometry" />
        </mxCell>
        <mxCell id="uK4ICi8PNPJ2xtGUJySF-93" value="+ Nome: String" style="text;strokeColor=#67AB9F;fillColor=none;align=left;verticalAlign=top;spacingLeft=4;spacingRight=4;overflow=hidden;rotatable=0;points=[[0,0.5],[1,0.5]];portConstraint=eastwest;whiteSpace=wrap;html=1;" vertex="1" parent="uK4ICi8PNPJ2xtGUJySF-60">
          <mxGeometry y="26" width="195" height="26" as="geometry" />
        </mxCell>
        <mxCell id="uK4ICi8PNPJ2xtGUJySF-61" value="+ contaCorrente: contaCorrente" style="text;strokeColor=#67AB9F;fillColor=none;align=left;verticalAlign=top;spacingLeft=4;spacingRight=4;overflow=hidden;rotatable=0;points=[[0,0.5],[1,0.5]];portConstraint=eastwest;whiteSpace=wrap;html=1;" vertex="1" parent="uK4ICi8PNPJ2xtGUJySF-60">
          <mxGeometry y="52" width="195" height="26" as="geometry" />
        </mxCell>
        <mxCell id="uK4ICi8PNPJ2xtGUJySF-62" value="+ contaPoupanca: contaPoupanca" style="text;strokeColor=#67AB9F;fillColor=none;align=left;verticalAlign=top;spacingLeft=4;spacingRight=4;overflow=hidden;rotatable=0;points=[[0,0.5],[1,0.5]];portConstraint=eastwest;whiteSpace=wrap;html=1;" vertex="1" parent="uK4ICi8PNPJ2xtGUJySF-60">
          <mxGeometry y="78" width="195" height="26" as="geometry" />
        </mxCell>
        <mxCell id="uK4ICi8PNPJ2xtGUJySF-113" style="edgeStyle=orthogonalEdgeStyle;rounded=0;orthogonalLoop=1;jettySize=auto;html=1;entryX=0.5;entryY=0;entryDx=0;entryDy=0;endArrow=blockThin;endFill=0;strokeColor=#67AB9F;" edge="1" parent="1" source="uK4ICi8PNPJ2xtGUJySF-83" target="uK4ICi8PNPJ2xtGUJySF-54">
          <mxGeometry relative="1" as="geometry" />
        </mxCell>
        <mxCell id="uK4ICi8PNPJ2xtGUJySF-83" value="Conta Poupanca" style="swimlane;fontStyle=0;childLayout=stackLayout;horizontal=1;startSize=26;fillColor=none;horizontalStack=0;resizeParent=1;resizeParentMax=0;resizeLast=0;collapsible=1;marginBottom=0;whiteSpace=wrap;html=1;strokeColor=#67AB9F;" vertex="1" parent="1">
          <mxGeometry x="439" y="330" width="140" height="52" as="geometry" />
        </mxCell>
        <mxCell id="uK4ICi8PNPJ2xtGUJySF-84" value="- saldo: int" style="text;strokeColor=#67AB9F;fillColor=none;align=left;verticalAlign=top;spacingLeft=4;spacingRight=4;overflow=hidden;rotatable=0;points=[[0,0.5],[1,0.5]];portConstraint=eastwest;whiteSpace=wrap;html=1;" vertex="1" parent="uK4ICi8PNPJ2xtGUJySF-83">
          <mxGeometry y="26" width="140" height="26" as="geometry" />
        </mxCell>
        <mxCell id="uK4ICi8PNPJ2xtGUJySF-114" style="edgeStyle=orthogonalEdgeStyle;rounded=0;orthogonalLoop=1;jettySize=auto;html=1;entryX=0.5;entryY=0;entryDx=0;entryDy=0;endArrow=blockThin;endFill=0;strokeColor=#67AB9F;" edge="1" parent="1" source="uK4ICi8PNPJ2xtGUJySF-87" target="uK4ICi8PNPJ2xtGUJySF-54">
          <mxGeometry relative="1" as="geometry">
            <mxPoint x="590" y="430" as="targetPoint" />
          </mxGeometry>
        </mxCell>
        <mxCell id="uK4ICi8PNPJ2xtGUJySF-87" value="Conta Corente" style="swimlane;fontStyle=0;childLayout=stackLayout;horizontal=1;startSize=26;fillColor=none;horizontalStack=0;resizeParent=1;resizeParentMax=0;resizeLast=0;collapsible=1;marginBottom=0;whiteSpace=wrap;html=1;strokeColor=#67AB9F;" vertex="1" parent="1">
          <mxGeometry x="591" y="330" width="140" height="52" as="geometry" />
        </mxCell>
        <mxCell id="uK4ICi8PNPJ2xtGUJySF-88" value="- saldo: int" style="text;strokeColor=#67AB9F;fillColor=none;align=left;verticalAlign=top;spacingLeft=4;spacingRight=4;overflow=hidden;rotatable=0;points=[[0,0.5],[1,0.5]];portConstraint=eastwest;whiteSpace=wrap;html=1;" vertex="1" parent="uK4ICi8PNPJ2xtGUJySF-87">
          <mxGeometry y="26" width="140" height="26" as="geometry" />
        </mxCell>
        <mxCell id="uK4ICi8PNPJ2xtGUJySF-107" value="Manipula" style="text;strokeColor=#67AB9F;align=center;fillColor=none;html=1;verticalAlign=middle;whiteSpace=wrap;rounded=0;" vertex="1" parent="1">
          <mxGeometry x="545" y="120" width="80" height="20" as="geometry" />
        </mxCell>
        <mxCell id="uK4ICi8PNPJ2xtGUJySF-111" style="edgeStyle=orthogonalEdgeStyle;rounded=0;orthogonalLoop=1;jettySize=auto;html=1;exitX=0;exitY=0.5;exitDx=0;exitDy=0;entryX=0.128;entryY=0.021;entryDx=0;entryDy=0;entryPerimeter=0;strokeColor=#67AB9F;" edge="1" parent="1" source="uK4ICi8PNPJ2xtGUJySF-107" target="uK4ICi8PNPJ2xtGUJySF-60">
          <mxGeometry relative="1" as="geometry">
            <Array as="points">
              <mxPoint x="512" y="130" />
              <mxPoint x="512" y="160" />
            </Array>
          </mxGeometry>
        </mxCell>
        <mxCell id="uK4ICi8PNPJ2xtGUJySF-112" style="edgeStyle=orthogonalEdgeStyle;rounded=0;orthogonalLoop=1;jettySize=auto;html=1;entryX=1;entryY=0.5;entryDx=0;entryDy=0;endArrow=none;endFill=0;strokeColor=#67AB9F;" edge="1" parent="1" target="uK4ICi8PNPJ2xtGUJySF-107">
          <mxGeometry relative="1" as="geometry">
            <mxPoint x="650" y="102" as="sourcePoint" />
            <Array as="points">
              <mxPoint x="650" y="102" />
              <mxPoint x="650" y="130" />
            </Array>
          </mxGeometry>
        </mxCell>
      </root>
    </mxGraphModel>
  </diagram>
</mxfile>
